<svg width="90" height="136" viewBox="0 0 90 136" fill="none" xmlns="http://www.w3.org/2000/svg">
<mask id="path-1-inside-1_1_5" fill="white">
<path fill-rule="evenodd" clip-rule="evenodd" d="M1.49123 132.325C-0.432469 131.769 -0.233983 129.081 1.69991 128.562C33.0708 120.135 56.9062 94.6286 59.5304 62.7039C61.393 40.0448 52.1854 18.8309 36.1096 3.62121C34.6225 2.21424 35.7979 -0.303669 37.7802 0.207752C69.4731 8.38436 91.6285 38.4102 88.8561 72.1381C85.7568 109.842 52.679 137.895 14.9746 134.796C10.3196 134.413 5.8116 133.574 1.49123 132.325Z"/>
</mask>
<path d="M1.69991 128.562L1.95934 129.528L1.69991 128.562ZM1.49123 132.325L1.76892 131.364L1.49123 132.325ZM58.5338 62.622C55.9486 94.0718 32.4589 119.264 1.44048 127.596L1.95934 129.528C33.6827 121.006 57.8638 95.1854 60.5271 62.7858L58.5338 62.622ZM35.4223 4.34762C51.3002 19.37 60.3691 40.2948 58.5338 62.622L60.5271 62.7858C62.4169 39.7949 53.0707 18.2918 36.7969 2.89481L35.4223 4.34762ZM37.5304 1.17605C68.7599 9.23311 90.5913 38.8216 87.8595 72.0561L89.8528 72.22C92.6657 37.9987 70.1863 7.53562 38.03 -0.760542L37.5304 1.17605ZM87.8595 72.0561C84.8054 109.21 52.2105 136.853 15.0566 133.799L14.8927 135.793C53.1475 138.937 86.7082 110.475 89.8528 72.22L87.8595 72.0561ZM15.0566 133.799C10.4681 133.422 6.02576 132.595 1.76892 131.364L1.21353 133.286C5.59745 134.553 10.171 135.405 14.8927 135.793L15.0566 133.799ZM36.7969 2.89481C36.3981 2.51749 36.3599 2.01452 36.5455 1.62768C36.7215 1.26081 37.0594 1.05454 37.5304 1.17605L38.03 -0.760542C36.5187 -1.15046 35.2778 -0.35348 34.7423 0.762483C34.2164 1.85849 34.334 3.31796 35.4223 4.34762L36.7969 2.89481ZM1.44048 127.596C0.0234997 127.977 -0.773518 129.17 -0.849042 130.367C-0.925841 131.583 -0.251817 132.862 1.21353 133.286L1.76892 131.364C1.31057 131.232 1.12199 130.889 1.14699 130.493C1.17325 130.077 1.44243 129.667 1.95934 129.528L1.44048 127.596Z" fill="black" mask="url(#path-1-inside-1_1_5)"/>
</svg>
