<svg width="190" height="190" viewBox="0 0 190 190" fill="none" xmlns="http://www.w3.org/2000/svg">
<circle cx="95" cy="95" r="61" stroke="white" stroke-width="4"/>
<line x1="93" y1="28" x2="93" y2="2" stroke="white" stroke-width="4" stroke-linecap="round"/>
<line x1="93" y1="188" x2="93" y2="162" stroke="white" stroke-width="4" stroke-linecap="round"/>
<line x1="59.768" y1="37.9763" x2="46.7679" y2="15.4596" stroke="white" stroke-width="4" stroke-linecap="round"/>
<line x1="139.768" y1="176.54" x2="126.768" y2="154.024" stroke="white" stroke-width="4" stroke-linecap="round"/>
<line x1="46.2096" y1="49.0381" x2="27.8249" y2="30.6533" stroke="white" stroke-width="4" stroke-linecap="round"/>
<line x1="159.347" y1="162.175" x2="140.962" y2="143.79" stroke="white" stroke-width="4" stroke-linecap="round"/>
<line x1="35.9763" y1="63.2321" x2="13.4596" y2="50.2321" stroke="white" stroke-width="4" stroke-linecap="round"/>
<line x1="174.54" y1="143.232" x2="152.024" y2="130.232" stroke="white" stroke-width="4" stroke-linecap="round"/>
<line x1="29.7653" y1="79.591" x2="4.65126" y2="72.8617" stroke="white" stroke-width="4" stroke-linecap="round"/>
<line x1="184.313" y1="121.002" x2="159.199" y2="114.273" stroke="white" stroke-width="4" stroke-linecap="round"/>
<line x1="28" y1="97" x2="2" y2="97" stroke="white" stroke-width="4" stroke-linecap="round"/>
<line x1="188" y1="97" x2="162" y2="97" stroke="white" stroke-width="4" stroke-linecap="round"/>
<line x1="30.8006" y1="114.273" x2="5.68654" y2="121.002" stroke="white" stroke-width="4" stroke-linecap="round"/>
<line x1="185.349" y1="72.8617" x2="160.235" y2="79.591" stroke="white" stroke-width="4" stroke-linecap="round"/>
<line x1="37.9763" y1="130.232" x2="15.4596" y2="143.232" stroke="white" stroke-width="4" stroke-linecap="round"/>
<line x1="176.54" y1="50.232" x2="154.024" y2="63.232" stroke="white" stroke-width="4" stroke-linecap="round"/>
<line x1="49.0381" y1="143.79" x2="30.6533" y2="162.175" stroke="white" stroke-width="4" stroke-linecap="round"/>
<line x1="162.175" y1="30.6533" x2="143.79" y2="49.0381" stroke="white" stroke-width="4" stroke-linecap="round"/>
<line x1="63.2321" y1="154.024" x2="50.2321" y2="176.54" stroke="white" stroke-width="4" stroke-linecap="round"/>
<line x1="143.232" y1="15.4596" x2="130.232" y2="37.9763" stroke="white" stroke-width="4" stroke-linecap="round"/>
<line x1="75.7273" y1="30.8006" x2="68.998" y2="5.68653" stroke="white" stroke-width="4" stroke-linecap="round"/>
<line x1="117.138" y1="185.349" x2="110.409" y2="160.235" stroke="white" stroke-width="4" stroke-linecap="round"/>
<line x1="110.409" y1="29.7653" x2="117.138" y2="4.65124" stroke="white" stroke-width="4" stroke-linecap="round"/>
<line x1="68.998" y1="184.313" x2="75.7273" y2="159.199" stroke="white" stroke-width="4" stroke-linecap="round"/>
</svg>
